<?xml version="1.0" encoding="UTF-8"?>
<svg id="Layer_2" data-name="Layer 2" xmlns="http://www.w3.org/2000/svg" viewBox="0 0 240.86 125.54">
  <defs>
    <style>
      .cls-1 {
        fill: #fbac37;
      }

      .cls-1, .cls-2 {
        stroke-width: 0px;
      }

      .cls-2 {
        fill: #13100b;
      }
    </style>
  </defs>
  <g id="Layer_1-2" data-name="Layer 1">
    <g id="Hel1">
      <g id="Färg">
        <g>
          <path class="cls-2" d="m44.8,99.24c-1-.41-1.5-.91-1.5-1.5,0-.55.42-1.16,1.25-1.82,1.17-.93,2.1-2.18,2.79-3.74.69-1.56,1.04-3.17,1.04-4.81,0-3.32-1.17-5.96-3.51-7.94-1.43-1.22-3.12-2.08-5.06-2.59-1.94-.51-4.5-.77-7.67-.77-1.34,0-2.83.02-4.47.07-5.25.14-8.77.21-10.55.21-2.43,0-4.7-.05-6.8-.14-1.26-.07-2.3-.11-3.11-.11-1.48,0-2.69.33-3.63,1-.94.67-3.56,5.7-3.56,6.75,0,1.29,2.94-1.9,4.51-1.24,1.36.6,2.22,1.35,2.59,2.27.37.92.55,2.77.55,5.56,0,7.61-.23,14.01-.68,19.21-.31,3.34-.6,5.52-.86,6.53-.26,1.01-.74,1.76-1.43,2.24-1.19.81-1.94,1.41-2.25,1.79-.31.38-.47.91-.47,1.57,0,1.03.42,1.91,1.25,2.65.86.74,2.02,1.11,3.47,1.11.6,0,1.59-.06,2.97-.18,1.55-.1,4.01-.17,7.37-.21l4.79-.04c.72.02,2.65.09,5.8.21,3.46.12,5.63.18,6.51.18,6.49,0,11.39-1.87,14.7-5.62,2.5-2.84,3.76-5.97,3.76-9.41,0-2.91-.82-5.33-2.47-7.26-1.6-1.86-3.38-3.18-5.33-3.97Zm-24.18-10.81l2.59-4.29c.47-.77,1.3-1.23,2.2-1.22l5.01.08c.91.01,1.73.51,2.17,1.3l2.56,4.63c.45.81.42,1.79-.07,2.58l-2.65,4.19c-.46.73-1.26,1.18-2.13,1.18l-4.96.02c-.92,0-1.78-.5-2.22-1.3l-2.56-4.63c-.44-.79-.42-1.76.05-2.53Zm15.59,23.58l-2.79,4.69c-.44.74-1.23,1.21-2.1,1.23l-3.33.1h-.33s-1.79.06-1.79.06c-.92.03-1.79-.45-2.26-1.24l-2.95-5.02c-.46-.78-.47-1.75-.02-2.53l2.73-4.8c.44-.78,1.27-1.27,2.17-1.28l5.52-.06c.91-.01,1.75.47,2.21,1.25l2.95,5.02c.47.8.47,1.78,0,2.58Z"/>
          <path class="cls-2" d="m126.78,85.53c.12-.75.27-1.26.47-1.53s.62-.56,1.27-.86c1.03-.5,1.54-1.24,1.54-2.24,0-1.18-.72-2.04-2.17-2.6-1.45-.55-3.7-.83-6.75-.83-2.6,0-4.76.21-6.48.62-.83.2-1.5.58-2.01,1.13-.51.56-.77,1.17-.77,1.85,0,.48.12.87.35,1.15.23.29.71.64,1.44,1.06.58.32.97.9,1.17,1.76.2.86.3,2.39.3,4.57,0,.73-.21,1.18-.62,1.37-.41.18-1.47.27-3.18.27-1.87,0-3.06-.02-3.57-.05-.5-.03-.88-.13-1.13-.3-.43-.27-.65-.98-.65-2.14,0-1.97.09-3.28.26-3.93.17-.65.58-1.17,1.23-1.57.75-.45,1.25-.85,1.52-1.22.26-.36.4-.84.4-1.42,0-2.14-2.58-3.21-7.75-3.21-1.99,0-3.93.19-5.81.57-3.25.65-4.87,1.81-4.87,3.48,0,.7.36,1.22,1.09,1.57,1.09.55,1.77,1.05,2.03,1.5.26.46.38,1.4.36,2.82,0,.56.03,2.83.1,6.81.02.8.02,1.48.02,2.06,0,3.13-.12,5.66-.37,7.6-.1.86-.24,1.47-.44,1.84-.19.36-.52.66-.98.89-.89.46-1.47.84-1.74,1.14-.27.3-.4.72-.4,1.27s.21,1.05.63,1.5c.42.46,1.01.81,1.75,1.06,1.72.56,3.94.84,6.66.84,2.98,0,5.28-.31,6.88-.92,1.61-.61,2.41-1.5,2.41-2.66,0-.91-.35-1.57-1.04-1.96-.68-.41-1.11-.75-1.29-1.02-.53-.83-.8-2.19-.8-4.07,0-1.16.05-2.14.15-2.93.08-.65.29-1.04.62-1.17.81-.33,2.7-.5,5.66-.5,1.29,0,2.09.12,2.4.37.31.25.46.89.46,1.94,0,2.02-.15,3.73-.45,5.12-.17.71-.33,1.2-.51,1.47-.17.27-.5.53-.98.8-.98.53-1.47,1.27-1.47,2.21,0,1.11.64,1.93,1.91,2.46,1.41.58,3.59.87,6.53.87,3.36,0,5.79-.29,7.29-.86,1.5-.57,2.25-1.49,2.25-2.74,0-.71-.32-1.24-.94-1.59-.88-.5-1.4-.83-1.57-.99-.17-.17-.32-.5-.45-.99-.25-.91-.37-3.05-.37-6.41,0-1.92.05-4.51.15-7.78.1-3.26.18-5.1.25-5.52Z"/>
          <path class="cls-2" d="m203.8,78.11c-1.08-.42-2.94-.63-5.58-.63-5.28,0-7.93.99-7.93,2.96,0,.7.43,1.27,1.29,1.71.78.4,1.17.88,1.17,1.44,0,.28-.11.68-.32,1.2-.22.52-.98,2.22-2.29,5.11-.73,1.61-1.31,2.68-1.74,3.23-.43.55-.92.82-1.47.82s-1.07-.51-1.52-1.54l-3.11-7.01c-.3-.68-.45-1.2-.45-1.57,0-.4.33-.82.99-1.27.86-.6,1.29-1.24,1.29-1.94,0-1.08-.8-1.87-2.39-2.39-1.59-.51-4.07-.77-7.45-.77s-5.74.34-7.48,1.03c-1.74.69-2.61,1.67-2.61,2.94,0,1.04.5,1.66,1.49,1.84.84.15,1.49.45,1.95.91.46.46.96,1.31,1.53,2.57l10.16,22.39c.41.93.76,1.57,1.03,1.92.25.33.58.75,1.01,1.01.61.52,1.06,1.01,1.07,1.77.04,2.83-1.4,4.57-1.94,6.36-.6,1.98,1.06,3.84,2.67,3.84,1.92,0,3.41-1.79,2.56-4.02-.78-2.05-1.86-3.33-1.86-6.22,0-.72.77-1.21,1.53-1.69.22-.11.43-.24.62-.4.63-.54,1.29-1.52,1.99-2.94l11.4-23.08c.73-1.49,1.36-2.43,1.89-2.81.3-.22.95-.38,1.96-.5,1.42-.18,2.14-.89,2.14-2.11,0-1.03-.54-1.75-1.63-2.17Z"/>
          <path class="cls-2" d="m88.95,101.88c-.29-1.12-3.35-4.05-4.33-4.42-1.21-.45.78,2.32.02,3.85-.05.09-.08.18-.12.27-.17.28-.35.6-.53.99-.8,1.67-1.82,2.83-3.08,3.47-1.26.64-3.13.96-5.62.96-1.61,0-2.75-.1-3.44-.29-.69-.19-1.1-.53-1.23-1.03-.12-.4-.23-1.21-.33-2.45-.11-1.23-.16-2.24-.16-3.02,0-1.28.14-2.15.41-2.62.27-.47.78-.71,1.53-.71,1.94,0,3.03.94,3.28,2.81.12.91.28,1.51.5,1.8.21.29.6.44,1.17.44.91,0,1.59-.46,2.04-1.37.81-1.67,1.22-3.82,1.22-6.44,0-1.32-.12-2.6-.36-3.81-.24-1.22-.53-2.07-.88-2.55-.48-.65-1.06-.97-1.74-.97-.46,0-.87.15-1.22.45-.33.27-.56.58-.68.93-.12.36-.24,1.01-.36,1.98-.08.75-.28,1.26-.6,1.55-.32.29-.82.44-1.52.44-1.41,0-2.28-.12-2.61-.36-.33-.24-.5-.86-.5-1.85,0-2.52.02-4.08.06-4.7.04-.61.17-1.1.39-1.47.41-.68,1.57-1.02,3.48-1.02,2.55,0,4.38.19,5.5.56,1.12.37,2.04,1.11,2.77,2.22.13.19.25.37.36.52.04.08.08.15.12.23.76,1.53-1,4.08.2,3.63.98-.37,3.81-3.07,4.11-4.19.02-.07.02-.14.04-.21.15-.47.24-1.01.24-1.63,0-2.14-.55-3.96-1.64-5.47-.66-.93-1.43-1.39-2.29-1.39-.2,0-.47.05-.82.15-1.13.33-2.28.55-3.47.66-1.18.11-3.07.16-5.65.16h-12.77c-1.86,0-3.11.07-3.75.22-.51.13-.93.41-1.24.82-.32.41-.47.89-.47,1.42,0,.98.47,1.61,1.42,1.89.63.18,1.04.34,1.24.47.2.13.38.36.55.7.8,1.67,1.19,5.71,1.19,12.1,0,4.24-.27,7.61-.82,10.11-.13.61-.32,1.08-.56,1.39-.24.32-.61.58-1.11.8-.71.33-1.17.6-1.37.82s-.3.56-.3,1.04c0,.68.23,1.2.7,1.58.46.37,1.12.56,1.96.56h21.07c1.77.05,3.19.17,4.25.37.6.1,1.05.15,1.37.15.38,0,.7-.1.94-.29.25-.19.56-.57.94-1.13.75-1.16,1.37-2.48,1.89-3.98.51-1.49.77-2.73.77-3.73,0-.02,0-.04,0-.06.01-.48-.04-.94-.15-1.38Z"/>
          <path class="cls-2" d="m240.86,103.26c.01-.48-.04-.94-.15-1.38-.29-1.12-3.35-4.05-4.33-4.42-1.21-.45.78,2.32.02,3.85-.05.09-.08.18-.12.27-.17.28-.35.6-.53.99-.8,1.67-1.82,2.83-3.08,3.47-1.26.64-3.13.96-5.62.96-1.61,0-2.75-.1-3.44-.29-.69-.19-1.1-.53-1.23-1.03-.12-.4-.23-1.21-.33-2.45-.11-1.23-.16-2.24-.16-3.02,0-1.28.14-2.15.41-2.62.27-.47.78-.71,1.53-.71,1.94,0,3.03.94,3.28,2.81.12.91.28,1.51.5,1.8.21.29.6.44,1.17.44.91,0,1.59-.46,2.04-1.37.81-1.67,1.22-3.82,1.22-6.44,0-1.32-.12-2.6-.36-3.81-.24-1.22-.53-2.07-.88-2.55-.48-.65-1.06-.97-1.74-.97-.46,0-.87.15-1.22.45-.33.27-.56.58-.68.93-.12.36-.24,1.01-.36,1.98-.08.75-.28,1.26-.6,1.55-.32.29-.82.44-1.52.44-1.41,0-2.28-.12-2.61-.36-.33-.24-.5-.86-.5-1.85,0-2.52.02-4.08.06-4.7.04-.61.17-1.1.39-1.47.41-.68,1.57-1.02,3.48-1.02,2.55,0,4.38.19,5.5.56,1.12.37,2.04,1.11,2.77,2.22.13.19.25.37.36.52.04.08.08.15.12.23.76,1.53-1,4.08.2,3.63.98-.37,3.81-3.07,4.11-4.19.02-.07.02-.14.04-.21.15-.47.24-1.01.24-1.63,0-2.14-.55-3.96-1.64-5.47-.66-.93-1.43-1.39-2.29-1.39-.2,0-.47.05-.82.15-1.13.33-2.28.55-3.47.66-1.18.11-3.07.16-5.65.16h-12.77c-1.86,0-3.11.07-3.75.22-.51.13-.93.41-1.24.82-.32.41-.47.89-.47,1.42,0,.98.47,1.61,1.42,1.89.63.18,1.04.34,1.24.47.2.13.38.36.55.7.8,1.67,1.19,5.71,1.19,12.1,0,4.24-.27,7.61-.82,10.11-.13.61-.32,1.08-.56,1.39-.24.32-.61.58-1.11.8-.71.33-1.17.6-1.37.82s-.3.56-.3,1.04c0,.68.23,1.2.7,1.58.46.37,1.12.56,1.96.56h21.07c1.77.05,3.19.17,4.25.37.6.1,1.05.15,1.37.15.38,0,.7-.1.94-.29.25-.19.56-.57.94-1.13.75-1.16,1.37-2.48,1.89-3.98.51-1.49.77-2.73.77-3.73,0-.02,0-.04,0-.06Z"/>
          <path class="cls-2" d="m171.54,107.22c-.61-.1-1.07-.29-1.37-.58-.3-.29-.67-.9-1.12-1.83l-4.7-10.06c-4.04-8.63-7.16-13.77-9.14-15.7-1.52-1.48-2.79-2.2-4.17-2.93-1.02-.53-5.58-2.19-6.62-2.03-.51.08.87,1.12,1.63,1.89.76.76,1.26,1.55,1.03,2.32-.16.54-.52,1.44-.73,2.1-.02.04-.06.1-.06.14-.02.07-.07.23-.14.45,0,0,0,0,0,0h0c-.46,1.41-1.82,5.42-2.2,6.63-.44,1.4-1.3,3.51-2.6,6.32l-3.5,7.68c-1.03,2.25-1.82,3.72-2.37,4.41-.56.69-1.37,1.22-2.45,1.6-.66.23-1.12.49-1.38.77-.26.28-.39.68-.39,1.19,0,1.18.58,1.94,1.74,2.29,1.26.36,3.23.55,5.91.55,4.72,0,7.08-.99,7.08-2.96,0-.89-.51-1.49-1.52-1.79-.78-.25-1.24-.43-1.38-.53-.14-.11-.21-.34-.21-.71,0-.4.1-.81.3-1.24.2-.43.43-.73.7-.89.43-.27,1.75-.4,3.95-.4,2.62,0,4.65.1,6.09.3,1.34.2,2.01.85,2.01,1.96,0,.63-.39,1.08-1.17,1.34-.7.23-1.17.48-1.43.76-.26.27-.38.66-.38,1.16,0,.65.24,1.2.73,1.65.49.46,1.15.76,1.98.91,1.8.31,4.58.47,8.32.47,3.31,0,5.7-.27,7.16-.8,1.46-.53,2.19-1.4,2.19-2.61,0-1.03-.6-1.63-1.79-1.81Zm-18.39-9.31l-2.32,1.53c-.58.38-1.32.42-1.93.09l-2.02-.78c-.6-.32-1.12-.81-1.15-1.49l2.68-6.71c.57-.36,1.3-.39,1.9-.07l2.63,1.39c.61.32,1,.96,1.01,1.65l.04,2.78c.01.65-.31,1.26-.85,1.61Z"/>
        </g>
        <g>
          <path class="cls-1" d="m127.21,40.83c.71-9.96,2.67-12.81-6.16-19.94-8.35-6.74-15.28-6.21-28.69-5.97-13.69.24-35.31,11.03-48.34,20.94-15.65,11.9-24.52,34.24-14.19,33.93,10.72-.32,14.48,3.41,26.1,4.25,10.37.76,24.51-6.23,33.59-7.73,27.54-4.54,36.35-6.62,37.7-25.48Z"/>
          <path class="cls-1" d="m188.42,42.61c-.97,13.58-9.91,16.14-24.05,18.33-6.62,1.02-23.32,4.52-27.91.18-4.66-4.4-8.27-13.24-7.78-20.13.47-6.66,9.2-22.44,13.8-26.56s18.98-2.98,25.9-2.49c7.95.57,11.69,4.43,15.77,10.6,2.89,4.37,4.66,14.44,4.26,20.07Z"/>
        </g>
        <g>
          <path class="cls-2" d="m122.04,11.01c-9.65-7.78-17.65-7.17-33.14-6.89-15.82.28-40.79,12.74-55.84,24.19-18.08,13.75-28.33,39.55-16.4,39.19,12.38-.37,16.73,3.94,30.15,4.91,11.98.87,28.31-7.2,38.8-8.93,31.81-5.25,42-7.65,43.55-29.44.82-11.51,3.09-14.8-7.12-23.03Zm.79,17.7c-.15,1.46-.31,3.06-.43,4.85-1.11,15.58-4.65,17.75-37.89,23.23-4.4.72-9.34,2.32-14.57,4.01-7.69,2.48-16.4,5.29-22.61,4.85h-.03c-5.5-.4-9.19-1.4-13.1-2.45-3.69-1-7.51-2.03-12.44-2.38-1.13-.08-2.26-.12-3.42-.13.77-5.3,7.26-18.2,18.81-26.99,14.17-10.77,38.02-22.56,51.86-22.8l2.47-.05c4.7-.09,8.76-.17,12.16.07,5.98.43,9.81,1.88,14.13,5.37,5.83,4.7,5.78,5.14,5.05,12.42Z"/>
          <path class="cls-2" d="m176.74.67c-8-.57-24.38-2.08-29.93,2.88-5.33,4.76-15.4,23-15.95,30.68s3.6,18.17,8.98,23.26c5.3,5.01,24.59.97,32.24-.21,16.34-2.53,26.67-5.49,27.79-21.17.46-6.51-1.58-18.14-4.92-23.19-4.71-7.13-9.03-11.59-18.21-12.25Zm-5.69,49.91c-.93.14-2.02.33-3.23.53-5.66.95-14.2,2.39-20.07,1.98h0c-2.21-.16-3.13-.53-3.35-.64-4.01-3.89-7.16-12.13-6.76-17.74s9.57-22.41,13.7-26.11c.92-.82,4.89-2.6,21.91-1.39l3.02.22c5.72.41,8.52,2.39,13.04,9.22,2.22,3.36,4.22,13.29,3.81,18.97-.68,9.6-4.6,12.25-22.06,14.95Z"/>
          <path class="cls-2" d="m230.69,22.45c-2.29-14.62-13.36-17.34-20.08-16.43-6.12.83-10.27,11.15-6.91,25.56.99,4.24,3.79,7.99,6.55,11.87,8.27,11.67,6.07,8.78,10.74,14.43,1.86,2.25,4.42,6.29,6.09,10.14.49,1.53,1.04,3.01,1.53,2.43.66-.78,1.65-5.69,1.69-6.99.57-3.24.95-6.48.99-8.6.15-8.26,1.04-22.01-.59-32.42Z"/>
        </g>
      </g>
    </g>
  </g>
</svg>