<svg width="715" height="373" viewBox="0 0 715 373" fill="none" xmlns="http://www.w3.org/2000/svg">
<path d="M132.996 294.675C130.035 293.452 128.554 291.971 128.554 290.232C128.554 288.622 129.778 286.819 132.288 284.823C135.764 282.054 138.532 278.383 140.592 273.747C142.652 269.11 143.682 264.345 143.682 259.451C143.682 249.598 140.206 241.742 133.254 235.882C129.005 232.276 123.984 229.7 118.255 228.155C112.461 226.609 104.865 225.901 95.4663 225.901C91.4751 225.901 87.0977 225.965 82.2053 226.094C66.6268 226.545 56.1983 226.738 50.8552 226.738C43.6454 226.738 36.8861 226.609 30.7062 226.287C26.9725 226.094 23.8826 225.965 21.4364 225.965C17.059 225.965 13.454 226.931 10.686 228.927C7.91789 230.924 0.128662 245.863 0.128662 248.954C0.128662 252.754 8.81913 243.288 13.5184 245.284C17.574 247.023 20.1489 249.276 21.2433 252.045C22.3376 254.75 22.917 260.288 22.917 268.595C22.917 291.198 22.2733 310.195 20.9214 325.65C20.0202 335.567 19.1833 342.006 18.3465 345.033C17.574 348.06 16.1577 350.249 14.0978 351.666C10.5572 354.048 8.30414 355.852 7.4029 356.946C6.50167 358.105 6.05105 359.651 6.05105 361.647C6.05105 364.674 7.27416 367.314 9.78474 369.504C12.3597 371.693 15.7715 372.788 20.0845 372.788C21.8226 372.788 24.7838 372.594 28.9038 372.273C33.4743 372.015 40.8129 371.757 50.7909 371.629L65.0175 371.5C67.1418 371.564 72.8711 371.757 82.2053 372.144C92.4407 372.53 98.9425 372.659 101.517 372.659C120.765 372.659 135.314 367.121 145.163 355.98C152.566 347.544 156.3 338.207 156.3 328.033C156.3 319.403 153.853 312.191 148.961 306.46C144.197 300.922 138.919 296.994 133.125 294.675H132.996ZM61.2194 262.542L68.9443 249.792C70.2961 247.538 72.8067 246.121 75.5104 246.185L90.3808 246.379C93.0845 246.379 95.5307 247.924 96.8181 250.242L104.414 263.959C105.766 266.341 105.637 269.304 104.221 271.622L96.3675 284.05C95.0157 286.24 92.6338 287.528 90.0589 287.528H75.3173C72.5492 287.592 70.0386 286.111 68.7512 283.728L61.155 270.012C59.8676 267.629 59.9319 264.796 61.2838 262.478L61.2194 262.542ZM107.504 332.54L99.2 346.45C97.9125 348.639 95.5307 350.056 92.9557 350.12L83.0421 350.442H82.0765L76.7335 350.635C73.9654 350.7 71.4549 349.283 70.0386 346.965L61.2838 332.089C59.9319 329.771 59.8676 326.873 61.2838 324.555L69.3949 310.324C70.7467 308.005 73.1929 306.589 75.8323 306.524L92.2476 306.331C94.9513 306.331 97.4619 307.683 98.8137 310.002L107.569 324.877C108.985 327.26 108.92 330.158 107.569 332.54H107.504Z" fill="#13100B"/>
<path d="M376.329 253.977C376.651 251.788 377.166 250.242 377.745 249.47C378.325 248.697 379.612 247.795 381.479 246.894C384.505 245.413 386.05 243.223 386.05 240.261C386.05 236.784 383.925 234.208 379.612 232.533C375.299 230.859 368.604 230.086 359.592 230.086C351.867 230.086 345.43 230.73 340.344 231.954C337.898 232.533 335.902 233.693 334.358 235.303C332.813 236.977 332.04 238.78 332.04 240.776C332.04 242.193 332.362 243.352 333.07 244.189C333.778 245.026 335.194 246.121 337.319 247.345C339.057 248.31 340.216 250.049 340.795 252.561C341.374 255.136 341.696 259.644 341.696 266.148C341.696 268.338 341.052 269.69 339.829 270.205C338.606 270.72 335.452 271.042 330.366 271.042C324.83 271.042 321.29 271.042 319.809 270.913C318.328 270.785 317.17 270.527 316.462 270.012C315.174 269.239 314.53 267.114 314.53 263.637C314.53 257.777 314.788 253.913 315.303 251.981C315.818 250.049 317.041 248.504 318.972 247.345C321.161 245.992 322.706 244.833 323.478 243.738C324.251 242.644 324.637 241.227 324.637 239.553C324.637 233.177 316.977 230.022 301.656 230.022C295.733 230.022 290.004 230.602 284.403 231.696C274.747 233.628 269.919 237.041 269.919 242C269.919 244.06 271.014 245.606 273.138 246.636C276.357 248.246 278.417 249.727 279.125 251.079C279.897 252.432 280.219 255.201 280.219 259.451C280.219 261.125 280.348 267.887 280.541 279.671C280.541 282.054 280.605 284.05 280.605 285.789C280.605 295.062 280.219 302.596 279.511 308.392C279.189 310.968 278.803 312.771 278.224 313.865C277.644 314.96 276.679 315.862 275.327 316.506C272.687 317.858 270.949 319.017 270.177 319.919C269.404 320.82 269.018 322.044 269.018 323.654C269.018 325.264 269.662 326.745 270.885 328.097C272.172 329.449 273.846 330.48 276.099 331.252C281.185 332.927 287.815 333.764 295.862 333.764C304.681 333.764 311.505 332.862 316.268 331.059C321.032 329.256 323.414 326.616 323.414 323.138C323.414 320.434 322.384 318.502 320.324 317.278C318.328 316.055 317.041 315.025 316.462 314.252C314.917 311.805 314.08 307.748 314.08 302.145C314.08 298.732 314.209 295.77 314.53 293.452C314.788 291.52 315.367 290.361 316.397 289.975C318.779 289.009 324.38 288.493 333.199 288.493C337.061 288.493 339.379 288.88 340.344 289.588C341.246 290.297 341.696 292.228 341.696 295.319C341.696 301.308 341.246 306.396 340.344 310.517C339.829 312.642 339.379 314.059 338.799 314.896C338.284 315.669 337.319 316.441 335.902 317.278C333.006 318.824 331.525 321.013 331.525 323.847C331.525 327.131 333.392 329.578 337.19 331.124C341.374 332.862 347.812 333.699 356.566 333.699C366.544 333.699 373.754 332.862 378.196 331.124C382.638 329.449 384.891 326.68 384.891 322.945C384.891 320.82 383.925 319.275 382.059 318.244C379.419 316.763 377.874 315.797 377.424 315.282C376.909 314.767 376.458 313.801 376.072 312.32C375.364 309.615 374.977 303.24 374.977 293.259C374.977 287.528 375.106 279.864 375.428 270.141C375.75 260.481 375.943 255.008 376.136 253.784L376.329 253.977Z" fill="#13100B"/>
<path d="M604.985 231.954C601.766 230.73 596.23 230.086 588.441 230.086C572.734 230.086 564.945 232.984 564.945 238.844C564.945 240.905 566.232 242.579 568.807 243.932C571.124 245.091 572.283 246.507 572.283 248.182C572.283 249.019 571.961 250.178 571.318 251.788C570.674 253.333 568.421 258.421 564.558 266.921C562.37 271.686 560.696 274.906 559.408 276.516C558.121 278.126 556.705 278.963 555.031 278.963C553.357 278.963 551.877 277.417 550.525 274.391L541.319 253.591C540.418 251.595 539.967 250.049 539.967 248.954C539.967 247.795 540.933 246.507 542.929 245.219C545.504 243.481 546.791 241.549 546.791 239.488C546.791 236.268 544.409 233.95 539.71 232.405C535.011 230.859 527.608 230.086 517.565 230.086C507.523 230.086 500.506 231.117 495.356 233.177C490.207 235.238 487.632 238.136 487.632 241.935C487.632 245.026 489.112 246.829 492.073 247.409C494.584 247.86 496.515 248.761 497.867 250.114C499.219 251.466 500.699 254.042 502.373 257.777L532.565 324.233C533.788 327.002 534.818 328.87 535.654 329.964C536.427 330.93 537.393 332.218 538.68 332.927C540.483 334.472 541.834 335.953 541.834 338.207C541.963 346.643 537.65 351.795 536.041 357.075C534.238 362.935 539.195 368.473 543.959 368.473C549.688 368.473 554.065 363.128 551.555 356.56C549.237 350.507 546.019 346.643 546.019 338.078C546.019 335.953 548.272 334.472 550.589 333.055C551.233 332.733 551.877 332.347 552.392 331.832C554.258 330.222 556.254 327.324 558.314 323.074L592.175 254.557C594.363 250.114 596.23 247.345 597.775 246.25C598.676 245.606 600.608 245.091 603.633 244.769C607.882 244.254 610.006 242.128 610.006 238.522C610.006 235.496 608.397 233.306 605.178 232.083L604.985 231.954Z" fill="#13100B"/>
<path d="M263.997 302.532C263.096 299.248 254.083 290.49 251.122 289.395C247.517 288.043 253.44 296.285 251.122 300.857C250.993 301.115 250.865 301.373 250.736 301.63C250.221 302.467 249.706 303.433 249.191 304.528C246.809 309.487 243.784 312.9 240.05 314.831C236.316 316.699 230.78 317.665 223.377 317.665C218.613 317.665 215.202 317.407 213.142 316.828C211.082 316.248 209.859 315.218 209.472 313.737C209.15 312.578 208.829 310.13 208.507 306.46C208.185 302.789 208.056 299.827 208.056 297.509C208.056 293.71 208.442 291.134 209.279 289.717C210.116 288.3 211.597 287.592 213.785 287.592C219.515 287.592 222.798 290.361 223.506 295.899C223.828 298.604 224.343 300.407 224.986 301.244C225.63 302.081 226.789 302.532 228.463 302.532C231.166 302.532 233.162 301.179 234.514 298.475C236.896 293.516 238.119 287.141 238.119 279.349C238.119 275.421 237.732 271.622 237.024 268.016C236.316 264.409 235.415 261.898 234.385 260.481C232.969 258.549 231.231 257.583 229.235 257.583C227.883 257.583 226.66 258.034 225.63 258.936C224.665 259.709 223.956 260.674 223.57 261.705C223.184 262.735 222.862 264.731 222.476 267.565C222.218 269.754 221.639 271.3 220.738 272.201C219.772 273.038 218.292 273.489 216.232 273.489C212.047 273.489 209.472 273.103 208.507 272.395C207.541 271.686 207.026 269.819 207.026 266.921C207.026 259.451 207.026 254.814 207.219 252.947C207.348 251.144 207.734 249.663 208.378 248.568C209.601 246.572 213.077 245.541 218.678 245.541C226.274 245.541 231.681 246.121 235.029 247.216C238.376 248.31 241.08 250.5 243.269 253.848C243.655 254.428 243.977 254.943 244.363 255.394C244.492 255.652 244.62 255.845 244.749 256.102C247.002 260.674 241.788 268.209 245.329 266.856C248.225 265.762 256.658 257.712 257.495 254.428C257.495 254.235 257.56 254.042 257.624 253.784C258.075 252.367 258.332 250.822 258.332 248.954C258.332 242.579 256.723 237.17 253.44 232.727C251.444 229.958 249.191 228.605 246.68 228.605C246.101 228.605 245.264 228.734 244.234 229.056C240.887 230.022 237.475 230.666 233.934 230.988C230.394 231.31 224.858 231.439 217.133 231.439H179.217C173.68 231.439 170.011 231.632 168.08 232.083C166.535 232.469 165.312 233.306 164.411 234.53C163.445 235.753 162.994 237.17 162.994 238.715C162.994 241.613 164.411 243.481 167.179 244.318C169.046 244.833 170.269 245.348 170.848 245.735C171.427 246.121 172.007 246.829 172.457 247.795C174.839 252.754 175.998 264.731 175.998 283.728C175.998 296.35 175.161 306.331 173.552 313.737C173.165 315.54 172.586 316.956 171.878 317.858C171.17 318.824 170.076 319.597 168.595 320.241C166.471 321.207 165.119 322.044 164.539 322.688C163.96 323.332 163.638 324.362 163.638 325.779C163.638 327.775 164.346 329.385 165.698 330.48C167.05 331.574 169.046 332.154 171.556 332.154H234.127C239.406 332.283 243.59 332.669 246.745 333.249C248.483 333.571 249.835 333.699 250.8 333.699C251.959 333.699 252.86 333.442 253.633 332.862C254.341 332.283 255.306 331.188 256.465 329.514C258.654 326.101 260.521 322.108 262.066 317.729C263.611 313.286 264.383 309.615 264.383 306.653C264.383 306.653 264.383 306.524 264.383 306.46C264.383 305.043 264.254 303.627 263.933 302.339L263.997 302.532Z" fill="#13100B"/>
<path d="M715 306.653C715 305.236 714.871 303.82 714.549 302.532C713.648 299.248 704.636 290.49 701.674 289.395C698.07 288.043 703.992 296.285 701.674 300.857C701.546 301.115 701.417 301.373 701.288 301.63C700.773 302.467 700.258 303.433 699.743 304.528C697.361 309.487 694.336 312.9 690.602 314.831C686.869 316.699 681.332 317.665 673.929 317.665C669.166 317.665 665.754 317.407 663.694 316.828C661.634 316.248 660.411 315.218 660.025 313.737C659.703 312.578 659.381 310.13 659.059 306.46C658.737 302.789 658.608 299.827 658.608 297.509C658.608 293.71 658.995 291.134 659.832 289.717C660.668 288.3 662.149 287.592 664.338 287.592C670.067 287.592 673.35 290.361 674.058 295.899C674.38 298.604 674.895 300.407 675.539 301.244C676.182 302.081 677.341 302.532 679.015 302.532C681.719 302.532 683.714 301.179 685.066 298.475C687.448 293.516 688.671 287.141 688.671 279.349C688.671 275.421 688.285 271.622 687.577 268.016C686.869 264.409 685.967 261.898 684.937 260.481C683.521 258.549 681.783 257.583 679.787 257.583C678.436 257.583 677.212 258.034 676.182 258.936C675.217 259.709 674.509 260.674 674.123 261.705C673.736 262.735 673.414 264.731 673.028 267.565C672.771 269.754 672.191 271.3 671.29 272.201C670.324 273.038 668.844 273.489 666.784 273.489C662.6 273.489 660.025 273.103 659.059 272.395C658.093 271.686 657.578 269.819 657.578 266.921C657.578 259.451 657.578 254.814 657.772 252.947C657.9 251.144 658.287 249.663 658.93 248.568C660.153 246.572 663.63 245.541 669.23 245.541C676.826 245.541 682.234 246.121 685.581 247.216C688.928 248.31 691.632 250.5 693.821 253.848C694.207 254.428 694.529 254.943 694.915 255.394C695.044 255.652 695.173 255.845 695.302 256.102C697.555 260.674 692.34 268.209 695.881 266.856C698.778 265.762 707.211 257.712 708.047 254.428C708.047 254.235 708.112 254.042 708.176 253.784C708.627 252.367 708.884 250.822 708.884 248.954C708.884 242.579 707.275 237.17 703.992 232.727C701.996 229.958 699.743 228.605 697.233 228.605C696.653 228.605 695.816 228.734 694.786 229.056C691.439 230.022 688.027 230.666 684.487 230.988C680.946 231.31 675.41 231.439 667.685 231.439H629.769C624.233 231.439 620.563 231.632 618.632 232.083C617.087 232.469 615.864 233.306 614.963 234.53C613.997 235.753 613.547 237.17 613.547 238.715C613.547 241.613 614.963 243.481 617.731 244.318C619.598 244.833 620.821 245.348 621.4 245.735C621.98 246.121 622.559 246.829 623.01 247.795C625.392 252.754 626.55 264.731 626.55 283.728C626.55 296.35 625.713 306.331 624.104 313.737C623.718 315.54 623.138 316.956 622.43 317.858C621.722 318.824 620.628 319.597 619.147 320.241C617.023 321.207 615.671 322.044 615.092 322.688C614.512 323.332 614.191 324.362 614.191 325.779C614.191 327.775 614.899 329.385 616.25 330.48C617.602 331.574 619.598 332.154 622.108 332.154H684.68C689.958 332.283 694.143 332.669 697.297 333.249C699.035 333.571 700.387 333.699 701.353 333.699C702.511 333.699 703.413 333.442 704.185 332.862C704.893 332.283 705.859 331.188 707.018 329.514C709.206 326.101 711.073 322.108 712.618 317.729C714.163 313.286 714.935 309.615 714.935 306.653C714.935 306.653 714.935 306.524 714.935 306.46L715 306.653Z" fill="#13100B"/>
<path d="M509.197 318.373C507.394 318.051 506.043 317.472 505.141 316.634C504.24 315.797 503.146 313.994 501.794 311.225L487.825 281.346C475.851 255.716 466.581 240.454 460.659 234.723C456.153 230.344 452.355 228.155 448.299 226.029C445.274 224.42 431.691 219.526 428.665 219.976C427.12 220.234 431.24 223.325 433.493 225.579C435.746 227.833 437.227 230.151 436.583 232.469C436.133 234.079 435.038 236.719 434.394 238.715C434.394 238.844 434.201 239.037 434.201 239.102C434.201 239.295 434.008 239.81 433.751 240.454C432.399 244.64 428.343 256.553 427.249 260.159C425.961 264.345 423.387 270.591 419.524 278.963L409.096 301.759C406.07 308.456 403.688 312.835 402.079 314.831C400.405 316.892 398.023 318.438 394.805 319.597C392.809 320.305 391.457 321.078 390.685 321.915C389.912 322.752 389.526 323.911 389.526 325.457C389.526 328.934 391.264 331.188 394.676 332.218C398.409 333.313 404.267 333.828 412.25 333.828C426.283 333.828 433.3 330.93 433.3 325.07C433.3 322.43 431.819 320.627 428.794 319.79C426.476 319.082 425.125 318.502 424.674 318.18C424.288 317.858 424.03 317.15 424.03 316.055C424.03 314.896 424.352 313.672 424.932 312.384C425.511 311.096 426.219 310.195 426.991 309.744C428.279 308.971 432.206 308.585 438.707 308.585C446.497 308.585 452.483 308.907 456.797 309.487C460.788 310.066 462.783 311.998 462.783 315.347C462.783 317.214 461.625 318.566 459.307 319.339C457.247 320.047 455.831 320.756 455.058 321.593C454.286 322.43 453.9 323.525 453.9 325.006C453.9 326.938 454.608 328.548 456.088 329.9C457.569 331.252 459.5 332.154 461.946 332.605C467.289 333.506 475.529 334.021 486.666 334.021C496.515 334.021 503.596 333.249 507.909 331.639C512.222 330.093 514.411 327.453 514.411 323.911C514.411 320.885 512.673 319.082 509.132 318.502L509.197 318.373ZM454.608 290.747L447.72 295.319C445.982 296.479 443.793 296.543 441.991 295.577L436.004 293.259C434.201 292.293 432.656 290.876 432.592 288.815L440.574 268.853C442.248 267.758 444.437 267.694 446.239 268.66L454.028 272.781C455.831 273.747 456.99 275.614 457.054 277.675L457.183 285.918C457.183 287.85 456.282 289.653 454.672 290.683L454.608 290.747Z" fill="#13100B"/>
<path d="M377.617 121.257C379.741 91.6997 385.535 83.1995 359.335 62.0776C334.551 42.0505 313.951 43.6604 274.168 44.3687C233.548 45.0771 169.367 77.1463 130.679 106.511C84.2009 141.864 57.872 208.192 88.5783 207.226C120.379 206.26 131.58 217.336 166.084 219.847C196.855 222.101 238.827 201.366 265.799 196.923C347.554 183.464 373.69 177.282 377.681 121.257H377.617Z" fill="#FBAC37"/>
<path d="M559.28 126.538C556.383 166.85 529.861 174.448 487.889 180.952C468.255 183.979 418.687 194.347 405.04 181.468C391.2 168.395 380.514 142.186 381.93 121.708C383.346 101.23 409.224 55.0585 422.936 42.8232C436.648 30.588 479.263 33.9366 499.863 35.4177C523.423 37.092 534.56 48.5545 546.662 66.9073C555.224 79.9153 560.503 109.795 559.28 126.538Z" fill="#FBAC37"/>
<path d="M362.296 32.7131C333.649 9.59498 309.895 11.3981 263.933 12.2352C217.004 13.0724 142.845 50.1 98.17 84.0366C44.4822 124.864 14.0334 201.495 49.439 200.4C86.1965 199.305 99.0712 212.12 138.919 215.018C174.517 217.594 222.926 193.638 254.083 188.487C348.52 172.903 378.775 165.755 383.346 101.037C385.792 66.8429 392.487 57.1191 362.231 32.6487L362.296 32.7131ZM364.613 85.2601C364.163 89.5746 363.712 94.3399 363.326 99.6848C360.043 145.921 349.55 152.361 250.865 168.653C237.797 170.778 223.12 175.543 207.605 180.566C184.817 187.907 158.939 196.279 140.464 194.991H140.399C124.048 193.767 113.105 190.869 101.517 187.714C90.5739 184.752 79.2441 181.725 64.5669 180.63C61.2194 180.373 57.872 180.244 54.3958 180.244C56.7132 164.531 75.961 126.216 110.272 100.071C152.308 68.0664 223.12 33.0995 264.19 32.3911L271.529 32.2623C285.498 32.0047 297.536 31.7472 307.642 32.4555C325.41 33.7434 336.739 38.058 349.614 48.4257C366.931 62.3996 366.802 63.6875 364.613 85.3245V85.2601Z" fill="#13100B"/>
<path d="M524.647 1.99627C500.893 0.321973 452.29 -4.18574 435.811 10.5609C419.975 24.728 390.105 78.8205 388.496 101.681C386.887 124.542 399.182 155.645 415.147 170.713C430.918 185.589 488.147 173.611 510.871 170.069C559.344 162.535 590.05 153.777 593.333 107.219C594.685 87.9004 588.634 53.3842 578.721 38.3799C564.751 17.1937 551.941 3.92814 524.647 1.99627ZM507.781 150.171C505.013 150.622 501.794 151.137 498.189 151.781C481.387 154.614 456.024 158.865 438.579 157.641C432.013 157.19 429.309 156.096 428.601 155.774C416.692 144.247 407.357 119.776 408.516 103.098C409.675 86.4193 436.905 36.5768 449.2 25.5652C451.904 23.1181 463.685 17.8376 514.218 21.4438L523.166 22.0878C540.161 23.3113 548.465 29.1713 561.855 49.456C568.421 59.4374 574.408 88.9307 573.184 105.802C571.189 134.33 559.537 142.186 507.716 150.236L507.781 150.171Z" fill="#13100B"/>
<path d="M684.809 66.6497C678.049 23.2469 645.154 15.1974 625.198 17.8376C607.045 20.2847 594.685 50.9371 604.663 93.7604C607.624 106.382 615.929 117.458 624.104 128.985C648.63 163.63 642.129 155.065 655.969 171.873C661.505 178.57 669.101 190.547 674.058 201.945C675.539 206.453 677.148 210.896 678.564 209.158C680.496 206.84 683.457 192.286 683.586 188.422C685.259 178.827 686.418 169.168 686.547 162.922C686.997 138.387 689.637 97.5597 684.809 66.6497Z" fill="#13100B"/>
</svg>
